# xmcd
#
# Track frame offsets: 
#        150
#        8080
#        37345
#        62147
#        86472
#        111020
#        145725
#        170597
#        196277
#        234867
#        241385
#        267050
#
# Disc length: 3924 seconds
#
# Revision: 11
# Processed by: cddbd v1.5.2PL0 Copyright (c) Steve Scherf et al.
# Submitted via: ExactAudioCopy v1.0b4
#
DISCID=9a0f520c
DTITLE=Van Halen - Van Halen III {Japan Rem WPCR-75072}
DYEAR=1998
DGENRE=Hard Rock
TTITLE0=Neworld
TTITLE1=Without You
TTITLE2=One I Want
TTITLE3=From Afar
TTITLE4=Dirty Water Dog
TTITLE5=Once
TTITLE6=Fire In The Hole
TTITLE7=Josephina
TTITLE8=Year To The Day
TTITLE9=Primary
TTITLE10=Ballot Or The Bullet
TTITLE11=How Many Say I
EXTD=WARNER BROTHERS\nReleased 3/17/1998\n\nMike Post - Producer\nTheE
EXTD=dward - Mastering, Mixing\nMichael Anthony - Bass, Vocals, \nGary
EXTD=Cherone - Vocals, \nErwin Musper - Engineer\nEd Rogers - Program
EXTD=ming\nEddie Schreyer - Mastering\nEddie Van Halen - Guitar, Keybo
EXTD=ards, Vocals, Producer, Engineer\nAlex Van Halen - Percussion, Dr
EXTD=ums,
EXTT0=
EXTT1=
EXTT2=
EXTT3=
EXTT4=
EXTT5=
EXTT6=
EXTT7=
EXTT8=
EXTT9=
EXTT10=
EXTT11=
PLAYORDER=
